<?xml version="1.0" encoding="UTF-8"?>
<svg id="Layer_2" data-name="Layer 2" xmlns="http://www.w3.org/2000/svg" width="370.36" height="123.36" viewBox="0 0 370.36 123.36">
  <defs>
    <style>
      .cls-1 {
        fill: #c64ab5;
      }

      .cls-1, .cls-2 {
        stroke-width: 0px;
      }

      .cls-2 {
        fill: #fff;
      }
    </style>
  </defs>
  
<path class="cls-2" fill-rule="evenodd" d="M11.162 6.412A11.083 11.083 0 0 1 30.083 14.25c0 3.811 -1.895 6.134 -3.461 8.05l-0.063 0.076C24.969 24.323 23.75 25.872 23.75 28.5a1.583 1.583 0 0 1 -1.583 1.583h-6.333a1.583 1.583 0 0 1 -1.583 -1.583c0 -2.552 -1.219 -4.137 -2.818 -6.135l-0.071 -0.089C9.806 20.333 7.917 17.974 7.917 14.25a11.083 11.083 0 0 1 3.246 -7.838M14.25 33.25a1.583 1.583 0 0 1 1.583 -1.583h6.333a1.583 1.583 0 1 1 0 3.167h-6.333a1.583 1.583 0 0 1 -1.583 -1.583m2.511 -21.239A3.167 3.167 0 0 1 19 11.083a1.583 1.583 0 1 0 0 -3.167 6.333 6.333 0 0 0 -6.333 6.333 1.583 1.583 0 0 0 3.167 0 3.167 3.167 0 0 1 0.928 -2.239" clip-rule="evenodd"/>

  <g id="Layer_1-2" data-name="Layer 1">
    <g>
      <g id="A-2">
        <path class="cls-2" d="m23.69,0c13.08,0,23.68,10.61,23.67,23.69,0,13.08-10.61,23.68-23.69,23.67C10.6,47.35,0,36.75,0,23.68,0,10.6,10.6,0,23.68,0h.01Z" transform="translate(323 76)"/>
      </g>
      <path class="cls-1" d="m32.45,38.83l-2.78-7.66h-12.13l-2.64,7.66h-5.48l11.46-30.31h5.59l11.53,30.31h-5.55Zm-8.79-25.75h-.13c-.08.74-.23,1.46-.45,2.17l-4.14,11.68h9.3l-4.17-11.68c-.2-.71-.34-1.44-.41-2.17Z" transform="translate(323 76)"/>
    </g>
  </g>
</svg>
