<?xml version="1.0" encoding="UTF-8"?>
<svg id="Layer_2" data-name="Layer 2" xmlns="http://www.w3.org/2000/svg" width="370.36" height="123.36" viewBox="0 0 370.36 123.36">
  <defs>
    <style>
      .cls-1 {
        fill: #c64ab5;
      }

      .cls-1, .cls-2 {
        stroke-width: 0px;
      }

      .cls-2 {
        fill: #fff;
      }
    </style>
  </defs>
  
<path class="cls-2" d="M13.272 4.044c-0.656 -1.558 -2.888 -1.558 -3.544 0L8.047 8.038l-4.362 0.346c-1.701 0.134 -2.391 2.234 -1.094 3.332l3.324 2.815 -1.016 4.209c-0.396 1.642 1.411 2.939 2.867 2.059L11.5 18.544l3.735 2.256c1.457 0.88 3.263 -0.418 2.867 -2.06l-1.016 -4.207 3.324 -2.816c1.297 -1.098 0.607 -3.197 -1.094 -3.332l-4.362 -0.345z"/>

  <g id="Layer_1-2" data-name="Layer 1">
    <g>
      <g id="A-2">
        <path class="cls-2" d="m23.69,0c13.08,0,23.68,10.61,23.67,23.69,0,13.08-10.61,23.68-23.69,23.67C10.6,47.35,0,36.75,0,23.68,0,10.6,10.6,0,23.68,0h.01Z" transform="translate(323 76)"/>
      </g>
      <path class="cls-1" d="m32.45,38.83l-2.78-7.66h-12.13l-2.64,7.66h-5.48l11.46-30.31h5.59l11.53,30.31h-5.55Zm-8.79-25.75h-.13c-.08.74-.23,1.46-.45,2.17l-4.14,11.68h9.3l-4.17-11.68c-.2-.71-.34-1.44-.41-2.17Z" transform="translate(323 76)"/>
    </g>
  </g>
</svg>
